<?xml version="1.0" encoding="UTF-8"?>
<svg width="106px" height="58px" viewBox="0 0 106 58" version="1.1" xmlns="http://www.w3.org/2000/svg" xmlns:xlink="http://www.w3.org/1999/xlink">
    <!-- Generator: sketchtool 49.3 (51167) - http://www.bohemiancoding.com/sketch -->
    <title>011FAB4E-9154-458B-ACB9-79827F6F62CB</title>
    <desc>Created with sketchtool.</desc>
    <defs></defs>
    <g id="Symbols" stroke="none" stroke-width="1" fill="none" fill-rule="evenodd">
        <g id="logo-dark">
            <g id="ft-logo">
                <g id="logo">
                    <g transform="translate(3.000000, 3.000000)" fill="#292623">
                        <polygon id="Fill-18" points="47.923 32.7852 49.831 32.7852 49.831 51.0772 51.957 51.0772 51.957 32.7852 53.775 32.7852 53.775 30.5672 47.923 30.5672"></polygon>
                        <polygon id="Fill-19" points="63.7228 51.078 68.6788 51.078 68.6788 48.954 65.8478 48.954 65.8478 41.593 67.8478 41.593 67.8478 39.468 65.8478 39.468 65.8478 32.693 68.6788 32.693 68.6788 30.568 63.7228 30.568"></polygon>
                        <path d="M88.5792,38.9752 C88.5792,39.7152 88.3022,40.0542 87.8392,40.0542 L87.0392,40.0542 L87.0392,32.7542 L87.9332,32.7542 C88.3322,32.7542 88.5792,33.0312 88.5792,33.7402 L88.5792,38.9752 Z M90.7662,43.5022 C90.7662,42.3932 90.3032,41.6552 89.5032,41.1622 C90.3032,40.6682 90.7042,39.8992 90.7042,38.8202 L90.7042,33.8012 C90.7042,31.1832 89.1952,30.5672 87.9942,30.5672 L84.8842,30.5672 L84.8842,51.0782 L87.0392,51.0782 L87.0392,42.1472 L87.8712,42.1472 C88.3642,42.1472 88.6712,42.5782 88.6712,43.1942 L88.6712,48.5452 C88.6712,49.8382 89.0102,51.0702 89.7192,51.0702 L91.1042,51.0702 L91.1042,50.4852 C90.8582,49.9622 90.7662,49.3142 90.7662,48.3902 L90.7662,43.5022 Z" id="Fill-20"></path>
                        <polygon id="Fill-21" points="77.233 32.7852 79.143 32.7852 79.143 51.0772 81.267 51.0772 81.267 32.7852 83.084 32.7852 83.084 30.5672 77.233 30.5672"></polygon>
                        <path d="M72.693,44.9185 L73.493,35.6485 L74.079,44.9185 L72.693,44.9185 Z M72.323,30.5675 L70.259,51.0775 L72.169,51.0775 L72.508,47.1365 L74.233,47.1365 L74.448,51.0775 L76.665,51.0775 L74.633,30.5675 L72.323,30.5675 Z" id="Fill-22"></path>
                        <polygon id="Fill-23" points="92.962 51.078 97.921 51.078 97.921 48.954 95.087 48.954 95.087 41.593 97.089 41.593 97.089 39.468 95.087 39.468 95.087 32.693 97.921 32.693 97.921 30.568 92.962 30.568"></polygon>
                        <polygon id="Fill-24" points="59.4845 39.8683 57.7295 39.8683 57.7295 30.5673 55.5735 30.5673 55.5735 51.0783 57.7295 51.0783 57.7295 42.0553 59.4845 42.0553 59.4845 51.0783 61.6095 51.0783 61.6095 30.5673 59.4845 30.5673"></polygon>
                        <path d="M92.756,4.7281 C92.756,3.5721 93.335,3.0351 94.162,3.0351 C94.904,3.0351 95.317,3.6131 95.317,4.8521 L95.317,8.9001 L97.878,8.9001 L97.878,5.0581 C97.878,1.9201 96.432,0.1841 94.162,0.1841 C91.228,0.1841 89.948,2.4571 89.948,5.6371 C89.948,8.4871 91.724,12.7411 93.004,15.5081 C94.45,18.6891 95.235,21.0431 95.235,23.8101 C95.235,25.0081 94.78,25.7101 93.789,25.7101 C92.88,25.7101 92.426,24.9261 92.426,23.8101 L92.426,19.9691 L89.824,19.9691 L89.824,23.4791 C89.824,26.5361 91.352,28.3541 93.913,28.3541 C95.565,28.3541 98.002,27.3631 98.002,23.0661 C98.002,20.1761 96.68,16.7891 95.152,13.3611 C93.583,9.7671 92.756,8.1561 92.756,4.7281" id="Fill-25"></path>
                        <path d="M70.0568,13.2372 L68.9828,13.2372 L68.9828,3.4482 L70.1808,3.4482 C70.7178,3.4482 71.0478,3.8202 71.0478,4.7702 L71.0478,11.7912 C71.0478,12.7832 70.6768,13.2372 70.0568,13.2372 M71.1718,17.4492 L71.1718,24.7192 C71.1718,26.4542 71.6268,28.1062 72.5758,28.1062 L74.4348,28.1062 L74.4348,27.3212 C74.1048,26.6192 73.9808,25.7522 73.9808,24.5122 L73.9808,17.8632 C73.9808,16.3762 73.3608,15.3852 72.2868,14.7242 C73.3608,14.0622 73.8978,13.0302 73.8978,11.5842 L73.8978,4.8522 C73.8978,1.3412 71.8738,0.5162 70.2638,0.5162 L66.0938,0.5162 L66.0938,28.0232 L68.9828,28.0232 L68.9828,16.0452 L70.0978,16.0452 C70.7598,16.0452 71.1718,16.6232 71.1718,17.4492" id="Fill-26"></path>
                        <path d="M88.2799,4.2743 L88.2799,0.5153 L85.9659,0.5153 L85.9659,4.6453 L87.0399,4.6453 C87.0399,6.0913 86.6269,6.6703 85.9659,6.6703 L85.9659,7.4953 C87.4949,7.4953 88.2799,6.1323 88.2799,4.2743" id="Fill-27"></path>
                        <path d="M81.3278,23.3976 C81.3278,24.6366 81.0398,25.1316 80.2548,25.1316 L79.0568,25.1316 L79.0568,3.4476 L80.2548,3.4476 C81.0398,3.4476 81.3278,3.9436 81.3278,5.1816 L81.3278,23.3976 Z M80.4198,0.5156 L76.1648,0.5156 L76.1648,28.0236 L80.4198,28.0236 C82.6098,28.0236 84.1788,26.7426 84.1788,23.1496 L84.1788,5.3886 C84.1788,1.7966 82.6098,0.5156 80.4198,0.5156 Z" id="Fill-28"></path>
                        <path d="M61.2286,24.0164 C61.2286,24.8024 60.7736,25.3394 60.0296,25.3394 C59.2456,25.3394 58.8326,24.8024 58.8326,24.0164 L58.8326,4.5214 C58.8326,3.7784 59.2456,3.2004 60.0296,3.2004 C60.7736,3.2004 61.2286,3.7784 61.2286,4.5214 L61.2286,24.0164 Z M64.1186,4.8944 C64.1186,2.1264 62.2606,0.1844 60.0296,0.1844 C57.7996,0.1844 55.9406,2.1264 55.9406,4.8944 L55.9406,23.6454 C55.9406,26.4534 57.7996,28.3534 60.0296,28.3534 C62.2606,28.3534 64.1186,26.4534 64.1186,23.6454 L64.1186,4.8944 Z" id="Fill-29"></path>
                        <polygon id="Fill-30" points="47.9332 28.023 50.7832 28.023 50.7832 15.384 53.6322 15.384 53.6322 12.575 50.7832 12.575 50.7832 3.366 54.3352 3.366 54.3352 0.516 47.9332 0.516"></polygon>
                        <path d="M35.8317,40.0216 C35.5227,39.8456 34.3077,38.7826 34.3107,38.5266 C34.3277,37.9356 35.1687,37.6966 35.5997,37.5206 C35.8167,37.1856 36.0237,36.7416 35.9887,36.2606 C35.9787,36.1316 35.7947,35.9846 35.7657,35.8886 C35.6337,35.4216 35.9017,35.2876 36.0537,35.0356 C36.3417,34.5486 36.1687,34.4046 36.1437,34.4046 C35.7947,34.3856 35.4717,34.5486 35.1127,34.6336 C34.1837,34.8606 33.3217,35.0526 32.2767,35.1016 C32.0607,35.1096 31.8487,35.1696 31.6587,35.1526 C31.3707,35.1236 31.0397,34.8636 30.7557,34.9206 C30.6877,34.9336 30.6057,35.0046 30.5197,35.0926 C30.4017,35.3956 30.2377,35.7216 30.0307,36.0496 C29.7357,36.5166 29.4077,36.9046 29.1017,37.1726 C29.1187,37.2316 29.1527,37.2786 29.2117,37.3136 C29.4497,37.4576 29.7357,37.1176 29.8837,36.9536 C30.3067,36.4866 30.5917,36.1026 31.1297,35.7786 C31.3277,35.6616 31.6797,35.4006 31.8807,35.3676 C32.3087,35.2916 32.9827,35.4756 33.4637,35.5636 C34.0527,35.6726 34.4947,35.7586 34.8297,35.9766 C34.9447,36.0526 35.2347,36.3026 35.2137,36.5676 C35.1947,36.8116 34.9877,36.9576 34.7247,37.0586 C34.0387,37.3226 32.3507,36.8496 32.0727,37.5206 C31.8527,38.0496 32.3707,38.5966 32.6397,38.8856 C32.7667,39.0236 33.2937,39.4576 33.2817,39.6326 C33.2667,39.8766 32.5607,40.2086 32.2487,40.2786 C31.6177,40.4236 31.1077,40.1516 30.4727,40.1226 C29.4867,40.0806 28.3177,40.5846 27.2277,40.3806 C26.7457,40.2936 26.2807,39.9386 25.8357,40.0216 C25.2527,40.1296 25.2727,40.9676 24.9347,41.3346 C24.7487,41.5366 24.2867,41.7026 23.8537,41.5636 C23.3947,41.4226 22.9767,40.9446 22.7947,40.5366 C22.5727,40.0286 22.5807,39.4626 22.3317,38.9146 C22.1097,38.4176 21.8147,37.9926 21.6367,37.5206 C21.2757,36.5546 21.2837,34.9656 21.1977,33.7866 C21.1507,33.1106 21.2357,32.5066 21.3547,31.9036 C21.4677,31.3196 21.5257,30.7166 21.6887,30.1536 C21.8337,29.6406 22.1607,29.1576 22.2537,28.6316 C22.3827,27.9146 22.0427,27.4286 21.7147,27.0596 C20.9937,26.2526 20.0137,25.8846 19.2167,25.2336 C18.7577,24.8596 18.3097,24.6556 17.9277,24.3556 C17.7287,24.1986 17.4347,23.9106 17.3347,23.5066 C17.1587,22.7696 17.4327,21.8916 17.7987,21.6506 C18.2517,21.3516 19.0787,20.9036 18.6227,20.3626 C18.0847,19.7226 18.0147,18.6886 17.4917,17.9656 C17.0047,17.2996 16.3147,16.9136 15.6367,16.2926 C15.0467,15.7506 14.4657,15.0566 14.1167,14.2826 C13.9007,13.8096 13.7047,13.3276 13.4737,12.8776 C13.1777,12.0796 12.5547,9.6856 14.5707,7.3316 C14.7157,7.1946 14.8387,7.0176 14.9917,6.9156 C15.4357,6.6116 15.9057,6.4876 16.0227,5.9856 C16.1017,5.6506 15.9777,5.2176 15.9457,4.8286 C15.9137,4.4376 15.9507,4.0426 15.9187,3.6936 C15.8547,2.9706 15.3677,2.4986 15.5837,1.7866 C15.7727,1.1656 16.2257,0.6636 16.7597,0.3176 L1.1767,0.3176 L0.3607,0.3176 L0.3607,50.9446 L17.2937,50.9446 C15.4447,49.5256 13.5237,48.1326 11.6177,46.7956 C10.1337,45.7606 8.5677,44.7816 7.0307,43.7576 C5.9477,43.0346 4.7447,42.2636 3.5787,41.4876 C3.2387,41.2616 2.6607,40.8706 2.7547,40.4066 C2.8907,39.7266 4.2187,40.2666 4.6607,40.1766 C5.2007,40.0606 5.3447,39.4656 5.5107,38.8856 C5.7457,38.0696 6.0397,37.1236 6.2837,36.3356 C6.4467,35.8126 6.6447,35.2516 6.7727,34.6086 C6.8897,34.0306 7.0027,33.2266 7.5197,33.1406 C7.9297,33.0756 8.2317,33.2696 8.4997,33.3986 C8.7797,33.5376 9.0447,33.6796 9.4257,33.7076 C10.2497,33.7726 10.8507,33.4356 11.2557,33.0646 C11.5397,32.8036 11.8737,32.3936 12.0817,32.0336 C12.2127,31.8046 12.6307,30.8666 12.0287,30.7446 C11.4317,30.6266 11.2907,31.3056 10.9737,31.5426 C10.6677,31.8016 10.2547,32.1016 9.7107,32.1096 C9.4107,32.1156 9.1467,32.1466 8.8977,32.0756 C8.3517,32.0146 8.0307,31.6936 7.6897,31.3986 C7.5677,31.2976 7.3507,31.0796 7.2257,30.9716 C7.0697,30.8416 6.5497,30.1806 6.4127,30.0256 C6.1617,29.7396 5.9247,29.3376 5.6917,28.9696 C5.4597,28.6036 5.2577,28.2126 5.1077,27.8456 C5.0157,27.6206 4.4687,26.2666 4.4277,26.1076 C4.3927,25.9636 3.8957,24.5366 3.8447,24.3556 C3.7967,24.1816 3.5497,23.2336 3.4887,22.9296 C3.4117,22.5526 3.3257,22.2286 3.3447,21.8066 C3.3527,21.6336 3.3577,21.4956 3.3917,21.2996 C3.4147,21.1516 3.4627,20.8706 3.4887,20.7246 C3.5347,20.4786 3.6597,20.2396 3.8097,19.9766 C3.9577,19.7166 4.2017,19.4356 4.3497,19.2546 C5.0987,18.3526 6.3777,17.6666 6.6557,17.5206 C7.0707,17.3046 7.3987,17.1396 8.1507,17.0936 C8.3677,17.0816 8.6327,17.1136 8.8487,17.1806 C9.1567,17.2786 9.1687,17.2786 9.4467,17.4146 C9.6617,17.5206 9.7057,17.8676 9.5687,17.9706 C9.0887,18.3316 8.5407,18.1336 7.7697,18.2426 C7.6077,18.2656 7.0817,18.4756 6.8917,18.5726 C6.4607,18.7896 6.2947,18.8836 5.8347,19.2406 C5.4067,19.5736 4.7917,19.9346 4.5307,20.4906 C4.4037,20.7616 4.3147,21.2316 4.2477,21.6506 C4.1857,22.0326 4.0827,22.6466 4.5057,22.7076 C4.8897,22.7606 5.4407,21.1266 6.2267,21.5336 C6.6207,21.7366 6.8237,22.8236 6.8517,23.4036 C6.8787,24.0386 6.8207,24.7066 7.2897,24.8706 C7.5337,24.9586 7.8257,24.6996 8.0637,24.6096 C8.8317,24.3176 9.2387,24.8876 9.3797,24.9986 C9.4797,25.0796 9.6827,25.2896 9.7377,25.3836 C9.8567,25.5836 10.2797,25.4966 10.2887,25.3686 C10.3177,24.9726 10.0067,24.1706 10.0367,23.7296 C10.0697,23.2276 10.3347,23.1176 10.5077,22.7836 C10.6817,22.4546 10.9307,22.1716 11.0757,21.8306 C11.2147,21.5096 11.1207,20.6566 11.3577,20.4656 C11.6217,20.2576 12.4127,20.4416 12.6737,20.5946 C13.3657,21.0026 13.6807,21.8486 14.0637,22.6566 C14.8047,24.2146 15.0427,26.2696 15.0427,28.6596 C15.0427,30.1476 14.7687,31.5666 14.7087,32.9886 C14.6757,33.7616 14.6177,34.5036 14.7087,35.2026 C14.7947,35.8656 15.0267,36.4866 15.0947,37.1346 C15.1997,38.1206 14.6187,38.5366 13.8587,38.1396 C13.4567,37.9306 13.0257,37.1996 12.3647,37.2646 C11.3007,37.3676 12.0317,39.0326 12.3127,39.6876 C12.5977,40.3556 12.8477,40.9336 13.1627,41.4376 C13.8707,42.5696 14.8717,43.3756 15.3517,44.4516 C15.4257,44.6236 15.5037,44.9296 15.4817,45.1986 C15.4577,45.4586 15.3017,45.7336 15.3277,45.9206 C15.4097,46.5806 16.8917,47.0056 17.4627,47.2606 C19.0557,47.9716 20.4457,48.9606 21.8167,49.8356 C22.1847,50.0736 23.6587,50.4946 24.0467,50.6286 C24.6917,50.8486 25.6747,50.9036 26.4767,50.9446 L26.5007,50.9446 L27.0617,50.9446 C26.7317,50.2796 26.5527,49.2996 26.8917,48.6256 C27.2577,47.8986 27.6687,47.1846 28.8127,47.2666 C30.2747,47.3706 32.7327,47.9916 33.4107,48.0096 C34.5057,48.0336 36.7777,45.8506 37.0687,45.1476 C37.2507,44.7146 37.3247,43.7736 37.4327,43.0606 C37.6077,41.8566 36.8687,40.6136 35.8317,40.0216" id="Fill-31"></path>
                        <path d="M10.4572,26.2892 C10.2982,26.2922 10.1502,26.5052 9.9392,26.5192 C9.6292,26.5442 9.3622,26.2132 9.0392,26.1592 C8.6912,26.1002 8.2222,26.3352 8.3962,26.6492 C8.4912,26.8212 8.7072,26.7592 8.8352,26.8532 C9.0272,27.0032 9.0582,27.3092 9.2712,27.4992 C9.7462,27.9152 11.0822,28.1022 11.1762,27.2412 C11.2222,26.8512 10.8272,26.2812 10.4572,26.2892" id="Fill-32"></path>
                        <path d="M41.256,26.7852 L41.245,26.7932 C41.468,27.3292 41.482,28.3622 41.202,28.8552 C40.819,29.5322 39.873,29.9772 38.59,29.7682 C36.172,29.3682 35.988,29.9862 34.982,30.0772 C34.504,30.1192 34.069,30.0712 33.824,29.9202 C33.537,29.7482 33.292,29.1102 33.308,28.7102 C33.336,28.0712 33.881,27.8952 33.9,27.2922 C33.362,27.2782 33.167,27.7732 33,28.1702 C32.824,28.5812 32.617,29.0402 32.432,29.4312 C32.005,30.3482 31.357,30.8582 30.912,31.5942 C30.744,31.8752 30.6,32.4972 30.359,32.8272 C30.173,33.0882 29.597,33.2002 29.646,33.5822 C29.659,33.7072 29.824,33.7392 29.909,33.7182 C30.306,33.6222 30.592,33.2872 30.774,33.0732 C31.11,32.6652 31.161,32.2462 31.362,31.8662 C31.672,31.2782 32.155,30.5922 32.844,30.4612 C33.529,30.3342 33.75,30.8942 34.209,31.2352 C34.631,31.5502 35.086,31.6962 35.37,31.9572 C35.613,32.1812 35.804,32.5492 35.963,32.8842 C36.038,33.0502 36.206,33.7422 36.373,33.7582 C36.413,33.7642 36.446,33.7452 36.478,33.7182 C36.489,33.7102 36.497,33.6992 36.506,33.6912 C36.528,33.6652 36.551,33.6372 36.569,33.6022 C36.579,33.5862 36.589,33.5742 36.594,33.5572 C36.648,33.4502 36.687,33.3172 36.713,33.2002 C36.715,33.1612 36.727,33.1212 36.727,33.0782 C36.727,32.5572 36.518,32.0612 36.554,31.5382 C36.631,30.4102 37.616,30.6342 38.981,30.8212 C39.585,30.9032 40.213,30.7792 40.678,30.4612 C41.258,30.0622 41.329,29.9542 41.624,29.3882 C41.697,29.2462 41.845,28.8442 41.863,28.6922 C41.969,27.7992 41.664,27.4102 41.553,27.1952 C41.471,27.0362 41.343,26.8722 41.256,26.7852" id="Fill-33"></path>
                        <path d="M36.5001,14.4117 C36.4911,14.8387 36.6211,15.0547 36.7611,15.2867 C36.8111,15.3767 36.8911,15.4557 36.9311,15.5527 C37.0331,15.8077 37.0271,16.0977 36.8621,16.3937 C36.6501,16.7777 36.4791,16.9597 36.4271,17.0387 C36.3221,17.1877 36.1261,17.2687 36.0671,17.4777 C36.0031,17.6767 35.9961,18.1557 36.0101,18.2787 C36.0101,18.2887 36.0181,18.8377 36.0131,18.9457 C36.0031,19.0687 35.8321,19.5987 35.7051,19.7707 C35.7661,20.0237 36.3661,20.1617 36.4201,20.2127 C36.3041,19.9367 36.2451,19.6537 36.2791,19.3797 C36.3351,18.9337 36.3241,18.1177 36.8431,17.8957 C37.6301,17.5577 38.3471,16.8187 38.1031,16.4557 C38.0751,16.4167 37.3421,15.1687 37.3041,15.1307 C36.9021,14.7287 36.5481,14.5757 36.5001,14.4117" id="Fill-34"></path>
                        <path d="M28.3112,31.7784 C27.3882,31.9314 26.6012,33.1974 26.4992,33.5204 C26.5072,33.5484 26.5182,33.5774 26.5332,33.6054 C26.7712,33.6364 26.9552,33.5124 27.1382,33.3504 C27.5162,32.9814 27.2772,32.7934 28.1082,32.4694 C28.2892,32.3994 28.4312,32.3204 28.5462,32.2374 C28.7002,32.0574 28.7192,31.8894 28.4142,31.8014 C28.3772,31.7934 28.3462,31.7844 28.3112,31.7784" id="Fill-35"></path>
                        <path d="M26.3268,2.3014 C26.7288,2.5254 28.9888,3.6754 29.9338,4.4144 C31.0568,5.2944 32.2148,5.9614 32.9198,7.1964 C33.1498,7.5924 33.3878,7.9864 33.6418,8.3824 C33.8708,8.7394 34.0558,9.2314 34.5208,9.3864 C34.5398,9.3364 33.9958,8.8624 35.3498,7.3954 C36.1008,6.5804 36.4978,5.5534 36.6298,4.2334 C36.6698,3.8664 36.6648,3.4704 36.6818,3.0744 C36.7018,2.6864 36.7688,2.3034 36.7608,1.9164 C36.7468,1.3354 36.6048,0.7784 36.3988,0.3174 L21.6848,0.3174 C22.3968,0.5234 23.0948,0.7494 23.7228,1.0664 C24.6098,1.5114 25.5048,1.8474 26.3268,2.3014" id="Fill-36"></path>
                        <path d="M30.2399,20.4398 C29.9909,20.5648 29.8519,20.7618 29.6489,20.8008 C29.3369,20.8608 29.0559,20.7278 29.0309,20.5438 C28.9859,20.2228 29.5999,19.8978 29.7279,19.8468 C29.9689,19.7528 30.1789,19.7308 30.4989,19.6938 C30.6569,19.6738 31.0509,19.6058 31.1189,19.7958 C31.2599,20.1968 30.4989,20.3118 30.2399,20.4398 M32.6909,21.5208 C32.7839,21.2328 34.1409,19.6508 35.0859,18.7398 C35.5829,18.2608 35.4379,17.4388 35.3729,17.0738 C35.3019,16.6748 35.1609,16.3458 34.8179,16.2178 C34.7439,16.1898 33.1329,15.5698 32.3789,15.5198 C31.4829,15.4598 31.1129,15.9458 30.6789,16.3938 C30.3079,16.7808 30.1189,17.3118 29.7529,17.6828 C29.4819,17.9598 29.1159,18.2438 28.7739,18.5858 C28.4529,18.9068 28.1589,19.2488 27.8729,19.5638 C27.5949,19.8668 27.2299,20.1948 26.9939,20.5688 C26.7509,20.9578 26.5239,21.5338 26.6089,22.0618 C26.6349,22.2258 26.7179,22.4298 26.9179,22.4238 C27.0089,22.4208 27.1309,22.2628 27.2269,22.1918 C27.4819,22.0078 28.0539,21.5578 28.4639,21.3928 C28.7909,21.2618 29.2629,21.3458 29.6259,21.4438 C29.8779,21.5148 30.1559,21.4978 29.8659,21.9348 C29.7929,22.0428 29.6089,22.0668 29.5969,22.2168 C29.5859,22.3558 29.5719,22.5098 29.6259,22.6828 C29.6859,22.8878 29.7899,23.1058 29.9579,23.2218 C30.1579,23.3618 30.4029,23.4058 30.6789,23.5058 C30.9069,23.5868 31.2799,23.6188 31.2969,23.8938 C31.3199,24.2108 30.8639,24.2618 31.0649,24.6408 C31.0879,24.6438 31.0789,24.6578 31.1189,24.6658 C31.4039,24.7288 31.4689,24.3618 31.5799,24.1508 C31.6909,23.9478 31.9279,23.7458 31.9939,23.5558 C32.1129,23.2028 31.8909,22.8088 32.0729,22.4748 C32.2509,22.3928 32.4809,22.2678 32.3789,21.9858 C32.1719,21.8208 31.5919,21.9348 31.7619,21.4708 C32.0679,21.2968 32.3449,21.6508 32.6909,21.5208" id="Fill-37"></path>
                    </g>
                    <polygon id="outline" stroke="#292623" stroke-width="0.25" points="0.125 57.3755 105.125 57.3755 105.125 0.1255 0.125 0.1255"></polygon>
                </g>
            </g>
        </g>
    </g>
</svg>