<?xml version="1.0" encoding="UTF-8"?>
<svg width="26px" height="54px" viewBox="0 0 26 54" version="1.1" xmlns="http://www.w3.org/2000/svg" xmlns:xlink="http://www.w3.org/1999/xlink">
    <!-- Generator: Sketch 50.2 (55047) - http://www.bohemiancoding.com/sketch -->
    <title>logo-dark-stack</title>
    <desc>Created with Sketch.</desc>
    <defs></defs>
    <g id="logo-dark-stack" stroke="none" stroke-width="1" fill="none" fill-rule="evenodd">
        <path d="M0.125,53.875 L25.875,53.875 L25.875,0.125 L0.125,0.125 L0.125,53.875 Z" id="Stroke-2" stroke="#231F20" stroke-width="0.25"></path>
        <polygon id="Fill-7" fill="#231F20" points="1.7324 44.0254 2.6014 44.0254 2.6014 52.3514 3.5684 52.3514 3.5684 44.0254 4.3964 44.0254 4.3964 43.0164 1.7324 43.0164"></polygon>
        <polygon id="Fill-8" fill="#231F20" points="8.9238 52.3516 11.1798 52.3516 11.1798 51.3846 9.8908 51.3846 9.8908 48.0346 10.8008 48.0346 10.8008 47.0676 9.8908 47.0676 9.8908 43.9836 11.1798 43.9836 11.1798 43.0166 8.9238 43.0166"></polygon>
        <path d="M20.2373,46.8428 C20.2373,47.1798 20.1113,47.3338 19.9013,47.3338 L19.5363,47.3338 L19.5363,44.0118 L19.9433,44.0118 C20.1253,44.0118 20.2373,44.1378 20.2373,44.4598 L20.2373,46.8428 Z M21.2333,48.9038 C21.2333,48.3988 21.0223,48.0628 20.6583,47.8388 C21.0223,47.6138 21.2043,47.2628 21.2043,46.7728 L21.2043,44.4888 C21.2043,43.2968 20.5173,43.0158 19.9713,43.0158 L18.5553,43.0158 L18.5553,52.3518 L19.5363,52.3518 L19.5363,48.2868 L19.9153,48.2868 C20.1393,48.2868 20.2793,48.4828 20.2793,48.7628 L20.2793,51.1988 C20.2793,51.7878 20.4333,52.3478 20.7563,52.3478 L21.3863,52.3478 L21.3863,52.0818 C21.2753,51.8438 21.2333,51.5498 21.2333,51.1288 L21.2333,48.9038 Z" id="Fill-9" fill="#231F20"></path>
        <polygon id="Fill-11" fill="#231F20" points="15.0732 44.0254 15.9422 44.0254 15.9422 52.3514 16.9092 52.3514 16.9092 44.0254 17.7362 44.0254 17.7362 43.0164 15.0732 43.0164"></polygon>
        <path d="M13.0068,49.5483 L13.3708,45.3293 L13.6368,49.5483 L13.0068,49.5483 Z M12.8388,43.0163 L11.8998,52.3513 L12.7688,52.3513 L12.9228,50.5573 L13.7078,50.5573 L13.8058,52.3513 L14.8148,52.3513 L13.8898,43.0163 L12.8388,43.0163 Z" id="Fill-13" fill="#231F20"></path>
        <polygon id="Fill-15" fill="#231F20" points="22.2324 52.3516 24.4894 52.3516 24.4894 51.3846 23.1994 51.3846 23.1994 48.0346 24.1104 48.0346 24.1104 47.0676 23.1994 47.0676 23.1994 43.9836 24.4894 43.9836 24.4894 43.0166 22.2324 43.0166"></polygon>
        <polygon id="Fill-17" fill="#231F20" points="6.9951 47.2495 6.1961 47.2495 6.1961 43.0165 5.2151 43.0165 5.2151 52.3515 6.1961 52.3515 6.1961 48.2445 6.9951 48.2445 6.9951 52.3515 7.9621 52.3515 7.9621 43.0165 6.9951 43.0165"></polygon>
        <path d="M22.665,14.4331 C23.417,14.4331 24.526,13.9821 24.526,12.0261 C24.526,10.7111 23.925,9.1691 23.229,7.6091 C22.515,5.9731 22.139,5.2401 22.139,3.6801 C22.139,3.1531 22.402,2.9091 22.778,2.9091 C23.116,2.9091 23.304,3.1721 23.304,3.7361 L23.304,5.5791 L24.47,5.5791 L24.47,3.8301 C24.47,2.4011 23.812,1.6121 22.778,1.6121 C21.443,1.6121 20.86,2.6451 20.86,4.0931 C20.86,5.3901 21.669,7.3271 22.251,8.5861 C22.91,10.0341 23.267,11.1051 23.267,12.3651 C23.267,12.9101 23.06,13.2301 22.609,13.2301 C22.195,13.2301 21.988,12.8721 21.988,12.3651 L21.988,10.6171 L20.804,10.6171 L20.804,12.2151 C20.804,13.6061 21.499,14.4331 22.665,14.4331" id="Fill-19" fill="#231F20"></path>
        <path d="M11.3184,3.0967 L11.8634,3.0967 C12.1084,3.0967 12.2584,3.2657 12.2584,3.6987 L12.2584,6.8947 C12.2584,7.3457 12.0894,7.5527 11.8074,7.5527 L11.3184,7.5527 L11.3184,3.0967 Z M11.3184,8.8307 L11.8254,8.8307 C12.1264,8.8307 12.3144,9.0937 12.3144,9.4707 L12.3144,12.7787 C12.3144,13.5687 12.5214,14.3207 12.9534,14.3207 L13.7994,14.3207 L13.7994,13.9627 C13.6494,13.6437 13.5924,13.2487 13.5924,12.6847 L13.5924,9.6577 C13.5924,8.9817 13.3114,8.5297 12.8224,8.2287 C13.3114,7.9287 13.5554,7.4587 13.5554,6.8007 L13.5554,3.7367 C13.5554,2.1387 12.6344,1.7627 11.9014,1.7627 L10.0034,1.7627 L10.0034,14.2827 L11.3184,14.2827 L11.3184,8.8307 Z" id="Fill-21" fill="#231F20"></path>
        <path d="M20.1011,3.4731 L20.1011,1.7621 L19.0481,1.7621 L19.0481,3.6421 L19.5371,3.6421 C19.5371,4.3001 19.3491,4.5631 19.0481,4.5631 L19.0481,4.9391 C19.7441,4.9391 20.1011,4.3191 20.1011,3.4731" id="Fill-23" fill="#231F20"></path>
        <path d="M15.9033,12.9668 L15.9033,3.0968 L16.4483,3.0968 C16.8053,3.0968 16.9373,3.3228 16.9373,3.8858 L16.9373,12.1768 C16.9373,12.7408 16.8053,12.9668 16.4483,12.9668 L15.9033,12.9668 Z M18.2343,12.0648 L18.2343,3.9808 C18.2343,2.3448 17.5203,1.7618 16.5233,1.7618 L14.5873,1.7618 L14.5873,14.2828 L16.5233,14.2828 C17.5203,14.2828 18.2343,13.6998 18.2343,12.0648 Z" id="Fill-25" fill="#231F20"></path>
        <path d="M6.6982,3.5854 C6.6982,3.2474 6.8862,2.9834 7.2432,2.9834 C7.5822,2.9834 7.7882,3.2474 7.7882,3.5854 L7.7882,12.4594 C7.7882,12.8164 7.5822,13.0604 7.2432,13.0604 C6.8862,13.0604 6.6982,12.8164 6.6982,12.4594 L6.6982,3.5854 Z M7.2432,14.4334 C8.2582,14.4334 9.1042,13.5684 9.1042,12.2904 L9.1042,3.7544 C9.1042,2.4954 8.2582,1.6114 7.2432,1.6114 C6.2282,1.6114 5.3822,2.4954 5.3822,3.7544 L5.3822,12.2904 C5.3822,13.5684 6.2282,14.4334 7.2432,14.4334 Z" id="Fill-27" fill="#231F20"></path>
        <polygon id="Fill-29" fill="#231F20" points="3.0342 8.5298 4.3312 8.5298 4.3312 7.2518 3.0342 7.2518 3.0342 3.0598 4.6512 3.0598 4.6512 1.7618 1.7372 1.7618 1.7372 14.2828 3.0342 14.2828"></polygon>
        <path d="M19.5596,35.9492 C19.4046,35.8612 18.7936,35.3272 18.7946,35.1972 C18.8036,34.9012 19.2266,34.7802 19.4426,34.6922 C19.5526,34.5242 19.6566,34.3012 19.6376,34.0582 C19.6336,33.9942 19.5406,33.9202 19.5266,33.8722 C19.4596,33.6372 19.5946,33.5702 19.6706,33.4432 C19.8156,33.1992 19.7286,33.1262 19.7156,33.1262 C19.5406,33.1162 19.3786,33.1992 19.1976,33.2412 C18.7306,33.3552 18.2986,33.4522 17.7726,33.4762 C17.6646,33.4802 17.5586,33.5112 17.4626,33.5022 C17.3176,33.4882 17.1506,33.3572 17.0086,33.3852 C16.9746,33.3922 16.9336,33.4282 16.8906,33.4722 C16.8306,33.6242 16.7476,33.7882 16.6436,33.9532 C16.4956,34.1882 16.3306,34.3832 16.1776,34.5172 C16.1856,34.5472 16.2026,34.5712 16.2326,34.5882 C16.3516,34.6602 16.4956,34.4902 16.5696,34.4072 C16.7826,34.1722 16.9256,33.9802 17.1966,33.8162 C17.2956,33.7582 17.4726,33.6272 17.5736,33.6102 C17.7886,33.5722 18.1276,33.6642 18.3696,33.7082 C18.6646,33.7632 18.8876,33.8062 19.0556,33.9162 C19.1136,33.9542 19.2586,34.0792 19.2486,34.2132 C19.2396,34.3362 19.1356,34.4082 19.0026,34.4602 C18.6586,34.5922 17.8096,34.3552 17.6706,34.6922 C17.5596,34.9582 17.8196,35.2332 17.9556,35.3782 C18.0186,35.4482 18.2836,35.6652 18.2776,35.7532 C18.2696,35.8762 17.9146,36.0432 17.7586,36.0782 C17.4416,36.1512 17.1846,36.0142 16.8666,36.0002 C16.3706,35.9782 15.7826,36.2322 15.2346,36.1292 C14.9926,36.0852 14.7596,35.9072 14.5366,35.9492 C14.2426,36.0032 14.2526,36.4242 14.0826,36.6092 C13.9896,36.7102 13.7576,36.7942 13.5396,36.7242 C13.3096,36.6532 13.0986,36.4132 13.0076,36.2082 C12.8956,35.9532 12.8996,35.6682 12.7746,35.3922 C12.6636,35.1432 12.5156,34.9292 12.4256,34.6922 C12.2436,34.2062 12.2476,33.4082 12.2046,32.8162 C12.1806,32.4752 12.2236,32.1722 12.2836,31.8692 C12.3406,31.5762 12.3696,31.2732 12.4516,30.9892 C12.5246,30.7322 12.6886,30.4902 12.7356,30.2252 C12.8006,29.8652 12.6296,29.6202 12.4646,29.4352 C12.1016,29.0292 11.6096,28.8442 11.2086,28.5162 C10.9786,28.3292 10.7536,28.2262 10.5606,28.0752 C10.4616,27.9972 10.3136,27.8522 10.2636,27.6492 C10.1746,27.2792 10.3116,26.8372 10.4966,26.7172 C10.7246,26.5662 11.1396,26.3412 10.9106,26.0692 C10.6406,25.7472 10.6046,25.2272 10.3426,24.8652 C10.0976,24.5292 9.7506,24.3362 9.4096,24.0232 C9.1136,23.7512 8.8216,23.4032 8.6456,23.0132 C8.5376,22.7762 8.4386,22.5332 8.3226,22.3072 C8.1736,21.9072 7.8606,20.7032 8.8746,19.5202 C8.9476,19.4512 9.0086,19.3622 9.0856,19.3112 C9.3086,19.1582 9.5446,19.0962 9.6036,18.8442 C9.6436,18.6752 9.5806,18.4572 9.5656,18.2622 C9.5486,18.0652 9.5676,17.8672 9.5516,17.6922 C9.5196,17.3282 9.2746,17.0912 9.3836,16.7342 C9.4786,16.4212 9.7056,16.1692 9.9746,15.9952 L2.1426,15.9952 L1.7326,15.9952 L1.7326,41.4392 L10.2436,41.4392 C9.3136,40.7262 8.3486,40.0262 7.3896,39.3542 C6.6446,38.8332 5.8576,38.3422 5.0846,37.8262 C4.5406,37.4632 3.9356,37.0762 3.3496,36.6862 C3.1796,36.5722 2.8886,36.3762 2.9356,36.1422 C3.0036,35.8012 3.6716,36.0732 3.8936,36.0272 C4.1656,35.9692 4.2376,35.6702 4.3216,35.3782 C4.4386,34.9682 4.5866,34.4922 4.7096,34.0962 C4.7906,33.8332 4.8906,33.5522 4.9556,33.2282 C5.0136,32.9382 5.0706,32.5342 5.3306,32.4912 C5.5366,32.4582 5.6886,32.5552 5.8236,32.6202 C5.9636,32.6902 6.0966,32.7612 6.2886,32.7762 C6.7026,32.8082 7.0046,32.6392 7.2086,32.4532 C7.3516,32.3222 7.5186,32.1162 7.6226,31.9342 C7.6896,31.8202 7.8996,31.3482 7.5966,31.2872 C7.2966,31.2272 7.2256,31.5692 7.0666,31.6882 C6.9126,31.8182 6.7056,31.9692 6.4316,31.9732 C6.2806,31.9752 6.1486,31.9912 6.0236,31.9562 C5.7486,31.9252 5.5876,31.7632 5.4156,31.6162 C5.3546,31.5642 5.2466,31.4552 5.1826,31.4012 C5.1046,31.3352 4.8436,31.0042 4.7736,30.9262 C4.6476,30.7822 4.5296,30.5792 4.4116,30.3942 C4.2956,30.2112 4.1936,30.0142 4.1186,29.8292 C4.0726,29.7172 3.7976,29.0362 3.7766,28.9572 C3.7596,28.8842 3.5096,28.1672 3.4836,28.0752 C3.4596,27.9892 3.3356,27.5122 3.3056,27.3602 C3.2666,27.1702 3.2226,27.0072 3.2326,26.7952 C3.2356,26.7082 3.2386,26.6382 3.2556,26.5402 C3.2676,26.4662 3.2916,26.3242 3.3056,26.2512 C3.3276,26.1272 3.3906,26.0082 3.4656,25.8752 C3.5406,25.7442 3.6636,25.6032 3.7376,25.5122 C4.1146,25.0592 4.7566,24.7142 4.8966,24.6412 C5.1046,24.5322 5.2696,24.4492 5.6476,24.4262 C5.7566,24.4202 5.8896,24.4362 5.9986,24.4702 C6.1536,24.5182 6.1596,24.5182 6.2986,24.5882 C6.4066,24.6412 6.4296,24.8152 6.3606,24.8672 C6.1196,25.0482 5.8436,24.9492 5.4566,25.0042 C5.3746,25.0152 5.1106,25.1212 5.0146,25.1692 C4.7986,25.2782 4.7146,25.3262 4.4836,25.5052 C4.2686,25.6722 3.9596,25.8542 3.8286,26.1342 C3.7646,26.2692 3.7206,26.5062 3.6856,26.7172 C3.6556,26.9082 3.6036,27.2172 3.8156,27.2472 C4.0086,27.2742 4.2866,26.4532 4.6806,26.6572 C4.8786,26.7592 4.9806,27.3052 4.9946,27.5972 C5.0086,27.9162 4.9786,28.2522 5.2146,28.3352 C5.3376,28.3792 5.4846,28.2492 5.6036,28.2032 C5.9906,28.0572 6.1946,28.3432 6.2656,28.3992 C6.3156,28.4402 6.4176,28.5452 6.4456,28.5922 C6.5046,28.6932 6.7176,28.6492 6.7226,28.5852 C6.7376,28.3862 6.5806,27.9832 6.5956,27.7612 C6.6126,27.5092 6.7456,27.4532 6.8326,27.2852 C6.9196,27.1202 7.0446,26.9782 7.1176,26.8072 C7.1876,26.6452 7.1406,26.2172 7.2596,26.1202 C7.3916,26.0162 7.7896,26.1092 7.9206,26.1852 C8.2686,26.3902 8.4266,26.8162 8.6196,27.2222 C8.9916,28.0052 9.1116,29.0382 9.1116,30.2392 C9.1116,30.9872 8.9736,31.6992 8.9436,32.4142 C8.9266,32.8032 8.8976,33.1762 8.9436,33.5272 C8.9866,33.8612 9.1036,34.1722 9.1376,34.4982 C9.1906,34.9932 8.8986,35.2032 8.5166,35.0032 C8.3146,34.8982 8.0986,34.5312 7.7656,34.5642 C7.2306,34.6152 7.5986,35.4522 7.7396,35.7812 C7.8826,36.1172 8.0086,36.4072 8.1666,36.6602 C8.5216,37.2302 9.0256,37.6342 9.2666,38.1752 C9.3046,38.2622 9.3436,38.4152 9.3316,38.5512 C9.3196,38.6812 9.2416,38.8202 9.2546,38.9142 C9.2956,39.2452 10.0406,39.4592 10.3276,39.5872 C11.1286,39.9442 11.8266,40.4412 12.5156,40.8812 C12.7006,41.0012 13.4416,41.2132 13.6366,41.2802 C13.9606,41.3912 14.4546,41.4182 14.8576,41.4392 L14.8706,41.4392 L15.1536,41.4392 L15.1526,41.4392 C14.9856,41.1042 14.8956,40.6122 15.0666,40.2732 C15.2506,39.9072 15.4566,39.5492 16.0316,39.5902 C16.7666,39.6422 18.0016,39.9542 18.3426,39.9632 C18.8926,39.9752 20.0346,38.8782 20.1816,38.5252 C20.2726,38.3072 20.3096,37.8352 20.3636,37.4762 C20.4526,36.8712 20.0806,36.2462 19.5596,35.9492" id="Fill-31" fill="#231F20"></path>
        <path d="M6.8066,29.0478 C6.7266,29.0488 6.6526,29.1558 6.5466,29.1628 C6.3906,29.1758 6.2566,29.0088 6.0946,28.9828 C5.9196,28.9528 5.6836,29.0708 5.7706,29.2288 C5.8186,29.3158 5.9276,29.2838 5.9916,29.3308 C6.0886,29.4068 6.1036,29.5608 6.2106,29.6558 C6.4496,29.8648 7.1206,29.9588 7.1686,29.5258 C7.1916,29.3298 6.9936,29.0438 6.8066,29.0478" id="Fill-33" fill="#231F20"></path>
        <path d="M22.4346,29.5034 C22.3936,29.4234 22.3296,29.3404 22.2856,29.2964 L22.2796,29.3014 C22.3926,29.5704 22.3986,30.0894 22.2576,30.3374 C22.0656,30.6774 21.5906,30.9014 20.9456,30.7954 C19.7306,30.5954 19.6376,30.9054 19.1326,30.9514 C18.8926,30.9724 18.6736,30.9484 18.5506,30.8724 C18.4066,30.7864 18.2826,30.4654 18.2906,30.2644 C18.3056,29.9434 18.5786,29.8554 18.5886,29.5514 C18.3176,29.5454 18.2196,29.7944 18.1356,29.9934 C18.0476,30.1994 17.9436,30.4304 17.8516,30.6264 C17.6366,31.0874 17.3096,31.3444 17.0866,31.7134 C17.0026,31.8554 16.9306,32.1684 16.8096,32.3334 C16.7156,32.4644 16.4266,32.5214 16.4506,32.7134 C16.4576,32.7754 16.5396,32.7914 16.5826,32.7814 C16.7826,32.7334 16.9256,32.5654 17.0176,32.4574 C17.1866,32.2524 17.2116,32.0414 17.3126,31.8504 C17.4686,31.5544 17.7116,31.2104 18.0576,31.1444 C18.4016,31.0804 18.5136,31.3624 18.7436,31.5334 C18.9556,31.6914 19.1846,31.7654 19.3276,31.8964 C19.4496,32.0084 19.5456,32.1934 19.6246,32.3614 C19.6636,32.4454 19.7476,32.7934 19.8306,32.8014 C19.8516,32.8044 19.8686,32.7944 19.8836,32.7814 C19.8896,32.7774 19.8936,32.7714 19.8986,32.7674 C19.9096,32.7544 19.9206,32.7404 19.9296,32.7234 C19.9346,32.7144 19.9396,32.7094 19.9426,32.7004 C19.9696,32.6464 19.9896,32.5794 20.0016,32.5214 C20.0036,32.5014 20.0096,32.4814 20.0096,32.4604 C20.0096,32.1974 19.9036,31.9484 19.9226,31.6864 C19.9606,31.1194 20.4556,31.2314 21.1426,31.3254 C21.4456,31.3664 21.7616,31.3044 21.9956,31.1444 C22.2866,30.9434 22.3226,30.8894 22.4706,30.6054 C22.5076,30.5344 22.5806,30.3324 22.5896,30.2544 C22.6436,29.8064 22.4906,29.6114 22.4346,29.5034" id="Fill-35" fill="#231F20"></path>
        <path d="M19.8955,23.0781 C19.8915,23.2931 19.9565,23.4011 20.0265,23.5181 C20.0515,23.5641 20.0915,23.6031 20.1115,23.6521 C20.1625,23.7801 20.1605,23.9261 20.0775,24.0751 C19.9705,24.2671 19.8855,24.3591 19.8585,24.3991 C19.8055,24.4731 19.7075,24.5151 19.6775,24.6191 C19.6455,24.7191 19.6425,24.9601 19.6485,25.0221 C19.6485,25.0271 19.6535,25.3031 19.6505,25.3571 C19.6455,25.4191 19.5595,25.6851 19.4955,25.7711 C19.5265,25.8991 19.8285,25.9681 19.8555,25.9941 C19.7965,25.8551 19.7675,25.7131 19.7845,25.5751 C19.8125,25.3511 19.8075,24.9411 20.0675,24.8301 C20.4635,24.6601 20.8235,24.2881 20.7005,24.1061 C20.6865,24.0861 20.3175,23.4591 20.2995,23.4401 C20.0975,23.2381 19.9195,23.1611 19.8955,23.0781" id="Fill-37" fill="#231F20"></path>
        <path d="M15.7798,31.8066 C15.3158,31.8836 14.9208,32.5196 14.8688,32.6816 C14.8728,32.6966 14.8788,32.7106 14.8858,32.7246 C15.0058,32.7406 15.0978,32.6776 15.1908,32.5966 C15.3798,32.4116 15.2598,32.3166 15.6778,32.1536 C15.7688,32.1186 15.8398,32.0786 15.8988,32.0366 C15.9748,31.9466 15.9848,31.8616 15.8308,31.8176 C15.8128,31.8136 15.7968,31.8096 15.7798,31.8066" id="Fill-39" fill="#231F20"></path>
        <path d="M14.7822,16.9922 C14.9842,17.1042 16.1202,17.6822 16.5952,18.0542 C17.1592,18.4962 17.7412,18.8322 18.0962,19.4522 C18.2112,19.6512 18.3312,19.8492 18.4592,20.0482 C18.5742,20.2272 18.6672,20.4752 18.9002,20.5532 C18.9102,20.5282 18.6362,20.2892 19.3172,19.5522 C19.6942,19.1432 19.8932,18.6262 19.9612,17.9632 C19.9802,17.7792 19.9782,17.5792 19.9862,17.3812 C19.9962,17.1862 20.0302,16.9922 20.0262,16.7992 C20.0192,16.5072 19.9482,16.2262 19.8442,15.9952 L12.4492,15.9952 C12.8072,16.0982 13.1582,16.2122 13.4742,16.3712 C13.9192,16.5952 14.3692,16.7632 14.7822,16.9922" id="Fill-41" fill="#231F20"></path>
        <path d="M16.7495,26.1079 C16.6245,26.1709 16.5545,26.2699 16.4515,26.2899 C16.2955,26.3189 16.1545,26.2539 16.1415,26.1599 C16.1185,25.9989 16.4275,25.8359 16.4915,25.8099 C16.6125,25.7629 16.7185,25.7519 16.8785,25.7329 C16.9585,25.7229 17.1565,25.6889 17.1905,25.7849 C17.2615,25.9859 16.8785,26.0439 16.7495,26.1079 M17.9805,26.6509 C18.0275,26.5069 18.7095,25.7119 19.1855,25.2539 C19.4345,25.0129 19.3615,24.5999 19.3285,24.4159 C19.2925,24.2159 19.2225,24.0499 19.0495,23.9859 C19.0125,23.9719 18.2025,23.6609 17.8245,23.6349 C17.3745,23.6049 17.1875,23.8489 16.9705,24.0749 C16.7835,24.2689 16.6875,24.5359 16.5045,24.7219 C16.3675,24.8619 16.1845,25.0039 16.0125,25.1759 C15.8515,25.3379 15.7035,25.5099 15.5595,25.6679 C15.4195,25.8199 15.2365,25.9849 15.1185,26.1729 C14.9955,26.3689 14.8815,26.6579 14.9245,26.9229 C14.9375,27.0049 14.9785,27.1079 15.0795,27.1059 C15.1245,27.1039 15.1865,27.0239 15.2345,26.9879 C15.3625,26.8959 15.6505,26.6699 15.8565,26.5869 C16.0205,26.5209 16.2585,26.5629 16.4405,26.6129 C16.5665,26.6489 16.7065,26.6399 16.5615,26.8589 C16.5245,26.9139 16.4325,26.9259 16.4265,27.0019 C16.4205,27.0709 16.4135,27.1479 16.4405,27.2349 C16.4705,27.3379 16.5225,27.4479 16.6065,27.5059 C16.7075,27.5759 16.8305,27.5989 16.9705,27.6489 C17.0835,27.6899 17.2715,27.7059 17.2805,27.8439 C17.2915,28.0029 17.0625,28.0289 17.1635,28.2189 C17.1755,28.2209 17.1705,28.2279 17.1905,28.2319 C17.3345,28.2639 17.3675,28.0789 17.4225,27.9729 C17.4785,27.8709 17.5975,27.7699 17.6305,27.6739 C17.6905,27.4959 17.5795,27.2979 17.6705,27.1309 C17.7605,27.0889 17.8755,27.0259 17.8245,26.8849 C17.7205,26.8019 17.4285,26.8589 17.5135,26.6259 C17.6675,26.5389 17.8075,26.7169 17.9805,26.6509" id="Fill-43" fill="#231F20"></path>
    </g>
</svg>